<svg width="24" height="24" viewBox="0 0 853 491" fill="none" xmlns="http://www.w3.org/2000/svg">
<path d="M19.704 472.248C31.7058 484.246 47.9815 490.986 64.952 490.986C81.9225 490.986 98.1982 484.246 110.2 472.248L427 155.448L743.8 472.248C755.871 483.906 772.037 490.357 788.818 490.211C805.598 490.065 821.65 483.335 833.516 471.468C845.383 459.602 852.113 443.55 852.259 426.77C852.405 409.989 845.954 393.823 834.296 381.752L472.248 19.704C460.246 7.70588 443.971 0.965698 427 0.965698C410.029 0.965698 393.754 7.70588 381.752 19.704L19.704 381.752C7.70585 393.754 0.965668 410.03 0.965668 427C0.965668 443.971 7.70585 460.246 19.704 472.248Z" fill="#1551E5"/>
</svg>
