<svg width="24" height="24" viewBox="0 0 1024 1024" fill="none" xmlns="http://www.w3.org/2000/svg">
<path d="M1015.66 284C1012.73 279.831 1008.83 276.429 1004.31 274.079C999.783 271.73 994.76 270.501 989.662 270.498H310.526L259.118 93.218C238.958 23.41 191.053 15.874 171.405 15.874H34.333C16.764 15.874 2.55603 30.098 2.55603 47.65C2.55603 65.202 16.78 79.425 34.332 79.425H171.388C175.724 79.425 188.956 79.425 197.981 110.609L374.829 760.545C378.669 774.257 391.165 783.728 405.42 783.728H837.388C850.797 783.728 862.764 775.328 867.293 762.704L1019.55 313.024C1023.05 303.28 1021.6 292.432 1015.66 284H1015.66ZM815.026 720.194H429.539L328.387 334.066H944.483L815.026 720.194ZM752.003 848.13C707.811 848.13 672.003 883.938 672.003 928.13C672.003 972.322 707.811 1008.13 752.003 1008.13C796.195 1008.13 832.003 972.322 832.003 928.13C832.003 883.938 796.195 848.13 752.003 848.13ZM464.003 848.13C419.811 848.13 384.003 883.938 384.003 928.13C384.003 972.322 419.811 1008.13 464.003 1008.13C508.195 1008.13 544.003 972.322 544.003 928.13C544.003 883.938 508.195 848.13 464.003 848.13Z" fill="#1551E5"/>
</svg>
