<svg width="27" height="27" viewBox="0 0 33 33" fill="1551e5" xmlns="http://www.w3.org/2000/svg">
<path d="M31.87 7.31997L26 1.41997C25.6121 1.03403 25.0872 0.817383 24.54 0.817383C23.9928 0.817383 23.4679 1.03403 23.08 1.41997L2.27 22.2L0.369996 30.4C0.304452 30.6997 0.306699 31.0103 0.376572 31.3091C0.446445 31.6079 0.58218 31.8873 0.773859 32.1269C0.965539 32.3665 1.20832 32.5602 1.48447 32.694C1.76062 32.8277 2.06316 32.8981 2.37 32.9C2.51297 32.9144 2.65703 32.9144 2.8 32.9L11.09 31L31.87 10.24C32.2559 9.85208 32.4726 9.32715 32.4726 8.77997C32.4726 8.23279 32.2559 7.70786 31.87 7.31997ZM10.09 29.2L2.32 30.83L4.09 23.21L19.66 7.69997L25.66 13.7L10.09 29.2ZM27 12.25L21 6.24997L24.48 2.78997L30.38 8.78997L27 12.25Z" fill="#1551e5"/>
</svg>
